<svg xmlns="http://www.w3.org/2000/svg" width="14" height="44" viewBox="0 0 14 44"><path d="M13.073 17.683a3.61 3.61 0 0 0-1.725 3.036 3.51 3.51 0 0 0 2.138 3.222 8.4 8.4 0 0 1-1.095 2.262c-.681.981-1.394 1.962-2.478 1.962s-1.364-.63-2.613-.63c-1.22 0-1.653.651-2.644.651s-1.684-.909-2.48-2.024a9.8 9.8 0 0 1-1.662-5.278c0-3.098 2.014-4.74 3.997-4.74 1.053 0 1.931.692 2.592.692.63 0 1.612-.734 2.81-.734a3.76 3.76 0 0 1 3.16 1.58M9.345 14.79a3.56 3.56 0 0 0 .846-2.22 1.5 1.5 0 0 0-.03-.32 3.57 3.57 0 0 0-2.345 1.208 3.46 3.46 0 0 0-.878 2.159 1.4 1.4 0 0 0 .031.289 1 1 0 0 0 .217.02 3.1 3.1 0 0 0 2.158-1.136"/></svg>